%TF.GenerationSoftware,KiCad,Pcbnew,9.0.5*%
%TF.CreationDate,2025-11-22T18:02:39+08:00*%
%TF.ProjectId,tb2086-usb-c_panelized,74623230-3836-42d7-9573-622d635f7061,rev?*%
%TF.SameCoordinates,Original*%
%TF.FileFunction,Soldermask,Top*%
%TF.FilePolarity,Negative*%
%FSLAX46Y46*%
G04 Gerber Fmt 4.6, Leading zero omitted, Abs format (unit mm)*
G04 Created by KiCad (PCBNEW 9.0.5) date 2025-11-22 18:02:39*
%MOMM*%
%LPD*%
G01*
G04 APERTURE LIST*
G04 Aperture macros list*
%AMRoundRect*
0 Rectangle with rounded corners*
0 $1 Rounding radius*
0 $2 $3 $4 $5 $6 $7 $8 $9 X,Y pos of 4 corners*
0 Add a 4 corners polygon primitive as box body*
4,1,4,$2,$3,$4,$5,$6,$7,$8,$9,$2,$3,0*
0 Add four circle primitives for the rounded corners*
1,1,$1+$1,$2,$3*
1,1,$1+$1,$4,$5*
1,1,$1+$1,$6,$7*
1,1,$1+$1,$8,$9*
0 Add four rect primitives between the rounded corners*
20,1,$1+$1,$2,$3,$4,$5,0*
20,1,$1+$1,$4,$5,$6,$7,0*
20,1,$1+$1,$6,$7,$8,$9,0*
20,1,$1+$1,$8,$9,$2,$3,0*%
G04 Aperture macros list end*
%ADD10RoundRect,0.237500X0.237500X-0.250000X0.237500X0.250000X-0.237500X0.250000X-0.237500X-0.250000X0*%
%ADD11RoundRect,0.150000X-0.512500X-0.150000X0.512500X-0.150000X0.512500X0.150000X-0.512500X0.150000X0*%
%ADD12RoundRect,0.237500X-0.250000X-0.237500X0.250000X-0.237500X0.250000X0.237500X-0.250000X0.237500X0*%
%ADD13C,0.800000*%
%ADD14C,6.400000*%
%ADD15RoundRect,0.225000X0.225000X0.250000X-0.225000X0.250000X-0.225000X-0.250000X0.225000X-0.250000X0*%
%ADD16RoundRect,0.243750X0.456250X-0.243750X0.456250X0.243750X-0.456250X0.243750X-0.456250X-0.243750X0*%
%ADD17RoundRect,0.200000X-0.200000X-0.550000X0.200000X-0.550000X0.200000X0.550000X-0.200000X0.550000X0*%
%ADD18RoundRect,0.312500X-0.337500X-0.312500X0.337500X-0.312500X0.337500X0.312500X-0.337500X0.312500X0*%
%ADD19R,0.558800X1.092200*%
%ADD20R,0.304800X1.092200*%
%ADD21O,1.016000X2.159000*%
%ADD22RoundRect,0.250000X0.475000X-0.250000X0.475000X0.250000X-0.475000X0.250000X-0.475000X-0.250000X0*%
%ADD23RoundRect,0.237500X0.250000X0.237500X-0.250000X0.237500X-0.250000X-0.237500X0.250000X-0.237500X0*%
G04 APERTURE END LIST*
D10*
%TO.C,R1*%
X47825000Y-42372500D03*
X47825000Y-40547500D03*
%TD*%
D11*
%TO.C,U1*%
X28237500Y-44830000D03*
X28237500Y-45780000D03*
X28237500Y-46730000D03*
X30512500Y-46730000D03*
X30512500Y-45780000D03*
X30512500Y-44830000D03*
%TD*%
D12*
%TO.C,R2*%
X23212500Y-15120000D03*
X25037500Y-15120000D03*
%TD*%
D13*
%TO.C,H2*%
X27225000Y-60399900D03*
X27927944Y-58702844D03*
X27927944Y-62096956D03*
X29625000Y-57999900D03*
D14*
X29625000Y-60399900D03*
D13*
X29625000Y-62799900D03*
X31322056Y-58702844D03*
X31322056Y-62096956D03*
X32025000Y-60399900D03*
%TD*%
D15*
%TO.C,C2*%
X31225000Y-14120000D03*
X29675000Y-14120000D03*
%TD*%
D13*
%TO.C,H2*%
X64475000Y-9319900D03*
X65177944Y-7622844D03*
X65177944Y-11016956D03*
X66875000Y-6919900D03*
D14*
X66875000Y-9319900D03*
D13*
X66875000Y-11719900D03*
X68572056Y-7622844D03*
X68572056Y-11016956D03*
X69275000Y-9319900D03*
%TD*%
D12*
%TO.C,R2*%
X23212500Y-66200000D03*
X25037500Y-66200000D03*
%TD*%
%TO.C,R2*%
X60462500Y-40660000D03*
X62287500Y-40660000D03*
%TD*%
D16*
%TO.C,F1*%
X29475000Y-17577500D03*
X29475000Y-15702500D03*
%TD*%
D10*
%TO.C,R1*%
X10575000Y-67912500D03*
X10575000Y-66087500D03*
%TD*%
D16*
%TO.C,F1*%
X66725000Y-17577500D03*
X66725000Y-15702500D03*
%TD*%
%TO.C,F1*%
X29475000Y-43117500D03*
X29475000Y-41242500D03*
%TD*%
D17*
%TO.C,J1*%
X17825000Y-42484900D03*
X19025000Y-42484900D03*
X20225000Y-42484900D03*
X21425000Y-42484900D03*
D18*
X16675000Y-46259900D03*
X22575000Y-46259900D03*
%TD*%
D16*
%TO.C,F1*%
X66725000Y-68657500D03*
X66725000Y-66782500D03*
%TD*%
D13*
%TO.C,H2*%
X27225000Y-9319900D03*
X27927944Y-7622844D03*
X27927944Y-11016956D03*
X29625000Y-6919900D03*
D14*
X29625000Y-9319900D03*
D13*
X29625000Y-11719900D03*
X31322056Y-7622844D03*
X31322056Y-11016956D03*
X32025000Y-9319900D03*
%TD*%
D19*
%TO.C,USB1*%
X60075001Y-64189801D03*
X59325000Y-64189801D03*
D20*
X58125000Y-64189801D03*
X57125000Y-64189801D03*
X56625000Y-64189801D03*
X55625000Y-64189801D03*
D19*
X53674999Y-64189801D03*
X54425000Y-64189801D03*
D20*
X55125001Y-64189801D03*
X56124999Y-64189801D03*
X57625001Y-64189801D03*
X58624999Y-64189801D03*
D21*
X62450000Y-62909800D03*
X62450000Y-58309800D03*
X51300000Y-62909800D03*
X51300000Y-58309800D03*
%TD*%
D22*
%TO.C,C1*%
X8775000Y-16870000D03*
X8775000Y-14970000D03*
%TD*%
D15*
%TO.C,C2*%
X68475000Y-65200000D03*
X66925000Y-65200000D03*
%TD*%
%TO.C,C2*%
X68475000Y-14120000D03*
X66925000Y-14120000D03*
%TD*%
D22*
%TO.C,C1*%
X46025000Y-16870000D03*
X46025000Y-14970000D03*
%TD*%
D19*
%TO.C,USB1*%
X22825001Y-13109801D03*
X22075000Y-13109801D03*
D20*
X20875000Y-13109801D03*
X19875000Y-13109801D03*
X19375000Y-13109801D03*
X18375000Y-13109801D03*
D19*
X16424999Y-13109801D03*
X17175000Y-13109801D03*
D20*
X17875001Y-13109801D03*
X18874999Y-13109801D03*
X20375001Y-13109801D03*
X21374999Y-13109801D03*
D21*
X25200000Y-11829800D03*
X25200000Y-7229800D03*
X14050000Y-11829800D03*
X14050000Y-7229800D03*
%TD*%
D10*
%TO.C,R1*%
X10575000Y-42372500D03*
X10575000Y-40547500D03*
%TD*%
D13*
%TO.C,H2*%
X64475000Y-60399900D03*
X65177944Y-58702844D03*
X65177944Y-62096956D03*
X66875000Y-57999900D03*
D14*
X66875000Y-60399900D03*
D13*
X66875000Y-62799900D03*
X68572056Y-58702844D03*
X68572056Y-62096956D03*
X69275000Y-60399900D03*
%TD*%
D10*
%TO.C,R1*%
X10575000Y-16832500D03*
X10575000Y-15007500D03*
%TD*%
D11*
%TO.C,U1*%
X65487500Y-44830000D03*
X65487500Y-45780000D03*
X65487500Y-46730000D03*
X67762500Y-46730000D03*
X67762500Y-45780000D03*
X67762500Y-44830000D03*
%TD*%
D23*
%TO.C,R3*%
X53287500Y-40660000D03*
X51462500Y-40660000D03*
%TD*%
D17*
%TO.C,J1*%
X55075000Y-42484900D03*
X56275000Y-42484900D03*
X57475000Y-42484900D03*
X58675000Y-42484900D03*
D18*
X53925000Y-46259900D03*
X59825000Y-46259900D03*
%TD*%
D23*
%TO.C,R3*%
X53287500Y-15120000D03*
X51462500Y-15120000D03*
%TD*%
D13*
%TO.C,H1*%
X7225000Y-9319900D03*
X7927944Y-7622844D03*
X7927944Y-11016956D03*
X9625000Y-6919900D03*
D14*
X9625000Y-9319900D03*
D13*
X9625000Y-11719900D03*
X11322056Y-7622844D03*
X11322056Y-11016956D03*
X12025000Y-9319900D03*
%TD*%
D11*
%TO.C,U1*%
X65487500Y-19290000D03*
X65487500Y-20240000D03*
X65487500Y-21190000D03*
X67762500Y-21190000D03*
X67762500Y-20240000D03*
X67762500Y-19290000D03*
%TD*%
D13*
%TO.C,H1*%
X44475000Y-34859900D03*
X45177944Y-33162844D03*
X45177944Y-36556956D03*
X46875000Y-32459900D03*
D14*
X46875000Y-34859900D03*
D13*
X46875000Y-37259900D03*
X48572056Y-33162844D03*
X48572056Y-36556956D03*
X49275000Y-34859900D03*
%TD*%
D11*
%TO.C,U1*%
X28237500Y-70370000D03*
X28237500Y-71320000D03*
X28237500Y-72270000D03*
X30512500Y-72270000D03*
X30512500Y-71320000D03*
X30512500Y-70370000D03*
%TD*%
D10*
%TO.C,R1*%
X47825000Y-16832500D03*
X47825000Y-15007500D03*
%TD*%
D12*
%TO.C,R2*%
X60462500Y-66200000D03*
X62287500Y-66200000D03*
%TD*%
D17*
%TO.C,J1*%
X17825000Y-68024900D03*
X19025000Y-68024900D03*
X20225000Y-68024900D03*
X21425000Y-68024900D03*
D18*
X16675000Y-71799900D03*
X22575000Y-71799900D03*
%TD*%
D17*
%TO.C,J1*%
X17825000Y-16944900D03*
X19025000Y-16944900D03*
X20225000Y-16944900D03*
X21425000Y-16944900D03*
D18*
X16675000Y-20719900D03*
X22575000Y-20719900D03*
%TD*%
D17*
%TO.C,J1*%
X55075000Y-68024900D03*
X56275000Y-68024900D03*
X57475000Y-68024900D03*
X58675000Y-68024900D03*
D18*
X53925000Y-71799900D03*
X59825000Y-71799900D03*
%TD*%
D12*
%TO.C,R2*%
X60462500Y-15120000D03*
X62287500Y-15120000D03*
%TD*%
D23*
%TO.C,R3*%
X16037500Y-40660000D03*
X14212500Y-40660000D03*
%TD*%
D22*
%TO.C,C1*%
X8775000Y-42410000D03*
X8775000Y-40510000D03*
%TD*%
D19*
%TO.C,USB1*%
X60075001Y-38649801D03*
X59325000Y-38649801D03*
D20*
X58125000Y-38649801D03*
X57125000Y-38649801D03*
X56625000Y-38649801D03*
X55625000Y-38649801D03*
D19*
X53674999Y-38649801D03*
X54425000Y-38649801D03*
D20*
X55125001Y-38649801D03*
X56124999Y-38649801D03*
X57625001Y-38649801D03*
X58624999Y-38649801D03*
D21*
X62450000Y-37369800D03*
X62450000Y-32769800D03*
X51300000Y-37369800D03*
X51300000Y-32769800D03*
%TD*%
D15*
%TO.C,C2*%
X31225000Y-65200000D03*
X29675000Y-65200000D03*
%TD*%
D23*
%TO.C,R3*%
X53287500Y-66200000D03*
X51462500Y-66200000D03*
%TD*%
D11*
%TO.C,U1*%
X28237500Y-19290000D03*
X28237500Y-20240000D03*
X28237500Y-21190000D03*
X30512500Y-21190000D03*
X30512500Y-20240000D03*
X30512500Y-19290000D03*
%TD*%
D10*
%TO.C,R1*%
X47825000Y-67912500D03*
X47825000Y-66087500D03*
%TD*%
D13*
%TO.C,H1*%
X7225000Y-34859900D03*
X7927944Y-33162844D03*
X7927944Y-36556956D03*
X9625000Y-32459900D03*
D14*
X9625000Y-34859900D03*
D13*
X9625000Y-37259900D03*
X11322056Y-33162844D03*
X11322056Y-36556956D03*
X12025000Y-34859900D03*
%TD*%
D22*
%TO.C,C1*%
X46025000Y-42410000D03*
X46025000Y-40510000D03*
%TD*%
%TO.C,C1*%
X8775000Y-67950000D03*
X8775000Y-66050000D03*
%TD*%
D17*
%TO.C,J1*%
X55075000Y-16944900D03*
X56275000Y-16944900D03*
X57475000Y-16944900D03*
X58675000Y-16944900D03*
D18*
X53925000Y-20719900D03*
X59825000Y-20719900D03*
%TD*%
D23*
%TO.C,R3*%
X16037500Y-66200000D03*
X14212500Y-66200000D03*
%TD*%
D19*
%TO.C,USB1*%
X22825001Y-64189801D03*
X22075000Y-64189801D03*
D20*
X20875000Y-64189801D03*
X19875000Y-64189801D03*
X19375000Y-64189801D03*
X18375000Y-64189801D03*
D19*
X16424999Y-64189801D03*
X17175000Y-64189801D03*
D20*
X17875001Y-64189801D03*
X18874999Y-64189801D03*
X20375001Y-64189801D03*
X21374999Y-64189801D03*
D21*
X25200000Y-62909800D03*
X25200000Y-58309800D03*
X14050000Y-62909800D03*
X14050000Y-58309800D03*
%TD*%
D13*
%TO.C,H2*%
X27225000Y-34859900D03*
X27927944Y-33162844D03*
X27927944Y-36556956D03*
X29625000Y-32459900D03*
D14*
X29625000Y-34859900D03*
D13*
X29625000Y-37259900D03*
X31322056Y-33162844D03*
X31322056Y-36556956D03*
X32025000Y-34859900D03*
%TD*%
D12*
%TO.C,R2*%
X23212500Y-40660000D03*
X25037500Y-40660000D03*
%TD*%
D22*
%TO.C,C1*%
X46025000Y-67950000D03*
X46025000Y-66050000D03*
%TD*%
D23*
%TO.C,R3*%
X16037500Y-15120000D03*
X14212500Y-15120000D03*
%TD*%
D19*
%TO.C,USB1*%
X22825001Y-38649801D03*
X22075000Y-38649801D03*
D20*
X20875000Y-38649801D03*
X19875000Y-38649801D03*
X19375000Y-38649801D03*
X18375000Y-38649801D03*
D19*
X16424999Y-38649801D03*
X17175000Y-38649801D03*
D20*
X17875001Y-38649801D03*
X18874999Y-38649801D03*
X20375001Y-38649801D03*
X21374999Y-38649801D03*
D21*
X25200000Y-37369800D03*
X25200000Y-32769800D03*
X14050000Y-37369800D03*
X14050000Y-32769800D03*
%TD*%
D13*
%TO.C,H1*%
X44475000Y-60399900D03*
X45177944Y-58702844D03*
X45177944Y-62096956D03*
X46875000Y-57999900D03*
D14*
X46875000Y-60399900D03*
D13*
X46875000Y-62799900D03*
X48572056Y-58702844D03*
X48572056Y-62096956D03*
X49275000Y-60399900D03*
%TD*%
%TO.C,H1*%
X7225000Y-60399900D03*
X7927944Y-58702844D03*
X7927944Y-62096956D03*
X9625000Y-57999900D03*
D14*
X9625000Y-60399900D03*
D13*
X9625000Y-62799900D03*
X11322056Y-58702844D03*
X11322056Y-62096956D03*
X12025000Y-60399900D03*
%TD*%
D15*
%TO.C,C2*%
X68475000Y-39660000D03*
X66925000Y-39660000D03*
%TD*%
D11*
%TO.C,U1*%
X65487500Y-70370000D03*
X65487500Y-71320000D03*
X65487500Y-72270000D03*
X67762500Y-72270000D03*
X67762500Y-71320000D03*
X67762500Y-70370000D03*
%TD*%
D19*
%TO.C,USB1*%
X60075001Y-13109801D03*
X59325000Y-13109801D03*
D20*
X58125000Y-13109801D03*
X57125000Y-13109801D03*
X56625000Y-13109801D03*
X55625000Y-13109801D03*
D19*
X53674999Y-13109801D03*
X54425000Y-13109801D03*
D20*
X55125001Y-13109801D03*
X56124999Y-13109801D03*
X57625001Y-13109801D03*
X58624999Y-13109801D03*
D21*
X62450000Y-11829800D03*
X62450000Y-7229800D03*
X51300000Y-11829800D03*
X51300000Y-7229800D03*
%TD*%
D13*
%TO.C,H1*%
X44475000Y-9319900D03*
X45177944Y-7622844D03*
X45177944Y-11016956D03*
X46875000Y-6919900D03*
D14*
X46875000Y-9319900D03*
D13*
X46875000Y-11719900D03*
X48572056Y-7622844D03*
X48572056Y-11016956D03*
X49275000Y-9319900D03*
%TD*%
D15*
%TO.C,C2*%
X31225000Y-39660000D03*
X29675000Y-39660000D03*
%TD*%
D16*
%TO.C,F1*%
X29475000Y-68657500D03*
X29475000Y-66782500D03*
%TD*%
%TO.C,F1*%
X66725000Y-43117500D03*
X66725000Y-41242500D03*
%TD*%
D13*
%TO.C,H2*%
X64475000Y-34859900D03*
X65177944Y-33162844D03*
X65177944Y-36556956D03*
X66875000Y-32459900D03*
D14*
X66875000Y-34859900D03*
D13*
X66875000Y-37259900D03*
X68572056Y-33162844D03*
X68572056Y-36556956D03*
X69275000Y-34859900D03*
%TD*%
M02*
