M48
; DRILL file {KiCad 9.0.5} date 2025-11-22T18:02:39+0800
; FORMAT={-:-/ absolute / inch / decimal}
; #@! TF.CreationDate,2025-11-22T18:02:39+08:00
; #@! TF.GenerationSoftware,Kicad,Pcbnew,9.0.5
; #@! TF.FileFunction,Plated,1,2,PTH
FMAT,2
INCH
; #@! TA.AperFunction,Plated,PTH,ViaDrill
T1C0.0118
; #@! TA.AperFunction,Plated,PTH,ComponentDrill
T2C0.0197
; #@! TA.AperFunction,Plated,PTH,ComponentDrill
T3C0.0200
; #@! TA.AperFunction,Plated,PTH,ComponentDrill
T4C0.1260
%
G90
G05
T1
X1.0195Y-0.7673
X1.0195Y-1.7728
X1.0195Y-2.7783
X1.0738Y-0.6512
X1.0738Y-1.6567
X1.0738Y-2.6622
X2.486Y-0.7673
X2.486Y-1.7728
X2.486Y-2.7783
X2.5404Y-0.6512
X2.5404Y-1.6567
X2.5404Y-2.6622
T2
X0.2844Y-0.3669
X0.2844Y-1.3724
X0.2844Y-2.3779
X0.3121Y-0.3001
X0.3121Y-0.4337
X0.3121Y-1.3056
X0.3121Y-1.4393
X0.3121Y-2.3111
X0.3121Y-2.4448
X0.3789Y-0.2724
X0.3789Y-0.4614
X0.3789Y-1.2779
X0.3789Y-1.4669
X0.3789Y-2.2835
X0.3789Y-2.4724
X0.4458Y-0.3001
X0.4458Y-0.4337
X0.4458Y-1.3056
X0.4458Y-1.4393
X0.4458Y-2.3111
X0.4458Y-2.4448
X0.4734Y-0.3669
X0.4734Y-1.3724
X0.4734Y-2.3779
X1.0719Y-0.3669
X1.0719Y-1.3724
X1.0719Y-2.3779
X1.0995Y-0.3001
X1.0995Y-0.4337
X1.0995Y-1.3056
X1.0995Y-1.4393
X1.0995Y-2.3111
X1.0995Y-2.4448
X1.1663Y-0.2724
X1.1663Y-0.4614
X1.1663Y-1.2779
X1.1663Y-1.4669
X1.1663Y-2.2835
X1.1663Y-2.4724
X1.2332Y-0.3001
X1.2332Y-0.4337
X1.2332Y-1.3056
X1.2332Y-1.4393
X1.2332Y-2.3111
X1.2332Y-2.4448
X1.2608Y-0.3669
X1.2608Y-1.3724
X1.2608Y-2.3779
X1.751Y-0.3669
X1.751Y-1.3724
X1.751Y-2.3779
X1.7787Y-0.3001
X1.7787Y-0.4337
X1.7787Y-1.3056
X1.7787Y-1.4393
X1.7787Y-2.3111
X1.7787Y-2.4448
X1.8455Y-0.2724
X1.8455Y-0.4614
X1.8455Y-1.2779
X1.8455Y-1.4669
X1.8455Y-2.2835
X1.8455Y-2.4724
X1.9123Y-0.3001
X1.9123Y-0.4337
X1.9123Y-1.3056
X1.9123Y-1.4393
X1.9123Y-2.3111
X1.9123Y-2.4448
X1.94Y-0.3669
X1.94Y-1.3724
X1.94Y-2.3779
X2.5384Y-0.3669
X2.5384Y-1.3724
X2.5384Y-2.3779
X2.5661Y-0.3001
X2.5661Y-0.4337
X2.5661Y-1.3056
X2.5661Y-1.4393
X2.5661Y-2.3111
X2.5661Y-2.4448
X2.6329Y-0.2724
X2.6329Y-0.4614
X2.6329Y-1.2779
X2.6329Y-1.4669
X2.6329Y-2.2835
X2.6329Y-2.4724
X2.6997Y-0.3001
X2.6997Y-0.4337
X2.6997Y-1.3056
X2.6997Y-1.4393
X2.6997Y-2.3111
X2.6997Y-2.4448
X2.7274Y-0.3669
X2.7274Y-1.3724
X2.7274Y-2.3779
T4
X0.3789Y-0.3669
X0.3789Y-1.3724
X0.3789Y-2.3779
X1.1663Y-0.3669
X1.1663Y-1.3724
X1.1663Y-2.3779
X1.8455Y-0.3669
X1.8455Y-1.3724
X1.8455Y-2.3779
X2.6329Y-0.3669
X2.6329Y-1.3724
X2.6329Y-2.3779
T3
G00X0.5531Y-0.2621
M15
G01X0.5531Y-0.3071
M16
G05
G00X0.5531Y-0.4432
M15
G01X0.5531Y-0.4882
M16
G05
G00X0.5531Y-1.2676
M15
G01X0.5531Y-1.3126
M16
G05
G00X0.5531Y-1.4488
M15
G01X0.5531Y-1.4938
M16
G05
G00X0.5531Y-2.2732
M15
G01X0.5531Y-2.3182
M16
G05
G00X0.5531Y-2.4543
M15
G01X0.5531Y-2.4993
M16
G05
G00X0.9921Y-0.2621
M15
G01X0.9921Y-0.3071
M16
G05
G00X0.9921Y-0.4432
M15
G01X0.9921Y-0.4882
M16
G05
G00X0.9921Y-1.2676
M15
G01X0.9921Y-1.3126
M16
G05
G00X0.9921Y-1.4488
M15
G01X0.9921Y-1.4938
M16
G05
G00X0.9921Y-2.2732
M15
G01X0.9921Y-2.3182
M16
G05
G00X0.9921Y-2.4543
M15
G01X0.9921Y-2.4993
M16
G05
G00X2.0197Y-0.2621
M15
G01X2.0197Y-0.3071
M16
G05
G00X2.0197Y-0.4432
M15
G01X2.0197Y-0.4882
M16
G05
G00X2.0197Y-1.2676
M15
G01X2.0197Y-1.3126
M16
G05
G00X2.0197Y-1.4488
M15
G01X2.0197Y-1.4938
M16
G05
G00X2.0197Y-2.2732
M15
G01X2.0197Y-2.3182
M16
G05
G00X2.0197Y-2.4543
M15
G01X2.0197Y-2.4993
M16
G05
G00X2.4587Y-0.2621
M15
G01X2.4587Y-0.3071
M16
G05
G00X2.4587Y-0.4432
M15
G01X2.4587Y-0.4882
M16
G05
G00X2.4587Y-1.2676
M15
G01X2.4587Y-1.3126
M16
G05
G00X2.4587Y-1.4488
M15
G01X2.4587Y-1.4938
M16
G05
G00X2.4587Y-2.2732
M15
G01X2.4587Y-2.3182
M16
G05
G00X2.4587Y-2.4543
M15
G01X2.4587Y-2.4993
M16
G05
M30
