M48
; DRILL file {KiCad 9.0.5} date 2025-11-22T18:02:39+0800
; FORMAT={-:-/ absolute / inch / decimal}
; #@! TF.CreationDate,2025-11-22T18:02:39+08:00
; #@! TF.GenerationSoftware,Kicad,Pcbnew,9.0.5
; #@! TF.FileFunction,NonPlated,1,2,NPTH
FMAT,2
INCH
; #@! TA.AperFunction,NonPlated,NPTH,ComponentDrill
T1C0.0197
; #@! TA.AperFunction,NonPlated,NPTH,ComponentDrill
T2C0.0240
%
G90
G05
T1
X0.0Y-0.1969
X0.0Y-2.9772
X0.0394Y-0.1969
X0.0394Y-2.9772
X0.0787Y-0.1969
X0.0787Y-2.9772
X0.1181Y-0.1969
X0.1181Y-2.9772
X0.1969Y0.0
X0.1969Y-0.0394
X0.1969Y-0.0787
X0.1969Y-0.1181
X0.1969Y-0.6858
X0.1969Y-0.7252
X0.1969Y-0.7646
X0.1969Y-0.8039
X0.1969Y-1.0449
X0.1969Y-1.0843
X0.1969Y-1.1236
X0.1969Y-1.6913
X0.1969Y-1.7307
X0.1969Y-1.7701
X0.1969Y-1.8094
X0.1969Y-2.0504
X0.1969Y-2.0898
X0.1969Y-2.1291
X0.1969Y-2.6969
X0.1969Y-2.7362
X0.1969Y-2.7756
X0.1969Y-2.815
X0.1969Y-3.0559
X0.1969Y-3.0953
X0.1969Y-3.1346
X0.1969Y-3.174
X0.3133Y-0.1984
X0.3133Y-1.2039
X0.3133Y-2.2094
X0.3527Y-0.1984
X0.3527Y-1.2039
X0.3527Y-2.2094
X0.3921Y-0.1984
X0.3921Y-1.2039
X0.3921Y-2.2094
X0.4314Y-0.1984
X0.4314Y-1.2039
X0.4314Y-2.2094
X1.114Y-0.9661
X1.114Y-1.9717
X1.114Y-2.9772
X1.1533Y-0.9661
X1.1533Y-1.9717
X1.1533Y-2.9772
X1.1927Y-0.9661
X1.1927Y-1.9716
X1.1927Y-2.9772
X1.2321Y-0.9661
X1.2321Y-1.9716
X1.2321Y-2.9772
X1.3484Y-0.686
X1.3484Y-0.7254
X1.3484Y-0.7647
X1.3484Y-0.8041
X1.3484Y-1.6915
X1.3484Y-1.7309
X1.3484Y-1.7702
X1.3484Y-1.8096
X1.3484Y-2.697
X1.3484Y-2.7364
X1.3484Y-2.7757
X1.3484Y-2.8151
X1.4665Y-0.1969
X1.4665Y-1.0449
X1.4665Y-1.0449
X1.4665Y-1.0843
X1.4665Y-1.1236
X1.4665Y-1.1236
X1.4665Y-2.0504
X1.4665Y-2.0504
X1.4665Y-2.0898
X1.4665Y-2.1291
X1.4665Y-2.1291
X1.4665Y-2.9772
X1.5059Y-0.1969
X1.5059Y-1.0449
X1.5059Y-1.1236
X1.5059Y-2.0504
X1.5059Y-2.1291
X1.5059Y-2.9772
X1.5453Y-0.1969
X1.5453Y-1.0449
X1.5453Y-1.0449
X1.5453Y-1.0843
X1.5453Y-1.1236
X1.5453Y-1.1236
X1.5453Y-2.0504
X1.5453Y-2.0504
X1.5453Y-2.0898
X1.5453Y-2.1291
X1.5453Y-2.1291
X1.5453Y-2.9772
X1.6634Y-0.6858
X1.6634Y-0.7252
X1.6634Y-0.7646
X1.6634Y-0.8039
X1.6634Y-1.6913
X1.6634Y-1.7307
X1.6634Y-1.7701
X1.6634Y-1.8094
X1.6634Y-2.6969
X1.6634Y-2.7362
X1.6634Y-2.7756
X1.6634Y-2.815
X1.7799Y-0.1984
X1.7799Y-1.2039
X1.7799Y-2.2094
X1.8192Y-0.1984
X1.8192Y-1.2039
X1.8192Y-2.2094
X1.8586Y-0.1984
X1.8586Y-1.2039
X1.8586Y-2.2094
X1.898Y-0.1984
X1.898Y-1.2039
X1.898Y-2.2094
X2.5805Y-0.9661
X2.5805Y-1.9717
X2.5805Y-2.9772
X2.6199Y-0.9661
X2.6199Y-1.9717
X2.6199Y-2.9772
X2.6593Y-0.9661
X2.6593Y-1.9716
X2.6593Y-2.9772
X2.6986Y-0.9661
X2.6986Y-1.9716
X2.6986Y-2.9772
X2.815Y0.0
X2.815Y-0.0394
X2.815Y-0.0787
X2.815Y-0.1181
X2.815Y-0.686
X2.815Y-0.7254
X2.815Y-0.7647
X2.815Y-0.8041
X2.815Y-1.0449
X2.815Y-1.0843
X2.815Y-1.1236
X2.815Y-1.6915
X2.815Y-1.7309
X2.815Y-1.7702
X2.815Y-1.8096
X2.815Y-2.0504
X2.815Y-2.0898
X2.815Y-2.1291
X2.815Y-2.697
X2.815Y-2.7364
X2.815Y-2.7757
X2.815Y-2.8151
X2.815Y-3.0559
X2.815Y-3.0953
X2.815Y-3.1346
X2.815Y-3.174
X2.8937Y-0.1969
X2.8937Y-2.9772
X2.9331Y-0.1969
X2.9331Y-2.9772
X2.9724Y-0.1969
X2.9724Y-2.9772
X3.0118Y-0.1969
X3.0118Y-2.9772
T2
X0.625Y-0.4689
X0.625Y-1.4744
X0.625Y-2.4799
X0.9203Y-0.4689
X0.9203Y-1.4744
X0.9203Y-2.4799
X2.0915Y-0.4689
X2.0915Y-1.4744
X2.0915Y-2.4799
X2.3868Y-0.4689
X2.3868Y-1.4744
X2.3868Y-2.4799
M30
