%TF.GenerationSoftware,KiCad,Pcbnew,9.0.5*%
%TF.CreationDate,2025-11-22T18:02:39+08:00*%
%TF.ProjectId,tb2086-usb-c_panelized,74623230-3836-42d7-9573-622d635f7061,rev?*%
%TF.SameCoordinates,Original*%
%TF.FileFunction,Soldermask,Bot*%
%TF.FilePolarity,Negative*%
%FSLAX46Y46*%
G04 Gerber Fmt 4.6, Leading zero omitted, Abs format (unit mm)*
G04 Created by KiCad (PCBNEW 9.0.5) date 2025-11-22 18:02:39*
%MOMM*%
%LPD*%
G01*
G04 APERTURE LIST*
%ADD10C,0.500000*%
%ADD11C,0.800000*%
%ADD12C,6.400000*%
%ADD13O,1.016000X2.159000*%
G04 APERTURE END LIST*
D10*
%TO.C,KiKit_MB_19_1*%
X34250000Y-68504035D03*
%TD*%
%TO.C,KiKit_MB_23_2*%
X71500000Y-69504035D03*
%TD*%
%TO.C,KiKit_MB_11_1*%
X34250000Y-42964035D03*
%TD*%
%TO.C,KiKit_MB_5_4*%
X48208777Y-5040000D03*
%TD*%
%TO.C,KiKit_MB_32_3*%
X37250000Y-54080000D03*
%TD*%
%TO.C,KiKit_MB_6_2*%
X67545000Y-24539909D03*
%TD*%
%TO.C,KiKit_MB_22_3*%
X66545000Y-75619913D03*
%TD*%
%TO.C,KiKit_MB_20_3*%
X5000000Y-69500000D03*
%TD*%
%TO.C,KiKit_MB_37_3*%
X39250000Y-54080000D03*
%TD*%
%TO.C,KiKit_MB_17_4*%
X10958777Y-56120000D03*
%TD*%
%TO.C,KiKit_MB_15_3*%
X71500000Y-44964035D03*
%TD*%
%TO.C,KiKit_MB_30_3*%
X37250000Y-28540000D03*
%TD*%
%TO.C,KiKit_MB_24_3*%
X42250000Y-69500000D03*
%TD*%
%TO.C,KiKit_MB_24_4*%
X42250000Y-68500000D03*
%TD*%
D11*
%TO.C,H2*%
X27225000Y-60399900D03*
X27927944Y-58702844D03*
X27927944Y-62096956D03*
X29625000Y-57999900D03*
D12*
X29625000Y-60399900D03*
D11*
X29625000Y-62799900D03*
X31322056Y-58702844D03*
X31322056Y-62096956D03*
X32025000Y-60399900D03*
%TD*%
D10*
%TO.C,KiKit_MB_1_2*%
X8958777Y-5040000D03*
%TD*%
%TO.C,KiKit_MB_3_2*%
X34250000Y-18424035D03*
%TD*%
%TO.C,KiKit_MB_33_1*%
X37250000Y-28540000D03*
%TD*%
%TO.C,KiKit_MB_28_3*%
X71500000Y-28540000D03*
%TD*%
%TO.C,KiKit_MB_19_3*%
X34250000Y-70504035D03*
%TD*%
%TO.C,KiKit_MB_6_1*%
X68545000Y-24539905D03*
%TD*%
D11*
%TO.C,H2*%
X64475000Y-9319900D03*
X65177944Y-7622844D03*
X65177944Y-11016956D03*
X66875000Y-6919900D03*
D12*
X66875000Y-9319900D03*
D11*
X66875000Y-11719900D03*
X68572056Y-7622844D03*
X68572056Y-11016956D03*
X69275000Y-9319900D03*
%TD*%
D10*
%TO.C,KiKit_MB_31_3*%
X5000000Y-54080000D03*
%TD*%
%TO.C,KiKit_MB_6_4*%
X65545000Y-24539916D03*
%TD*%
%TO.C,KiKit_MB_10_1*%
X31295000Y-50079905D03*
%TD*%
%TO.C,KiKit_MB_40_4*%
X71500000Y-3000000D03*
%TD*%
%TO.C,KiKit_MB_46_2*%
X74500000Y-75620000D03*
%TD*%
D11*
%TO.C,H2*%
X27225000Y-9319900D03*
X27927944Y-7622844D03*
X27927944Y-11016956D03*
X29625000Y-6919900D03*
D12*
X29625000Y-9319900D03*
D11*
X29625000Y-11719900D03*
X31322056Y-7622844D03*
X31322056Y-11016956D03*
X32025000Y-9319900D03*
%TD*%
D10*
%TO.C,KiKit_MB_2_2*%
X30295000Y-24539909D03*
%TD*%
D13*
%TO.C,USB1*%
X62450000Y-62909800D03*
X62450000Y-58309800D03*
X51300000Y-62909800D03*
X51300000Y-58309800D03*
%TD*%
D10*
%TO.C,KiKit_MB_44_2*%
X1000000Y-75620000D03*
%TD*%
%TO.C,KiKit_MB_29_2*%
X5000000Y-27540000D03*
%TD*%
D13*
%TO.C,USB1*%
X25200000Y-11829800D03*
X25200000Y-7229800D03*
X14050000Y-11829800D03*
X14050000Y-7229800D03*
%TD*%
D10*
%TO.C,KiKit_MB_23_1*%
X71500000Y-68504035D03*
%TD*%
%TO.C,KiKit_MB_34_1*%
X39250000Y-52080000D03*
%TD*%
%TO.C,KiKit_MB_40_2*%
X71500000Y-1000000D03*
%TD*%
%TO.C,KiKit_MB_7_2*%
X71500000Y-18424035D03*
%TD*%
%TO.C,KiKit_MB_46_3*%
X75500000Y-75620000D03*
%TD*%
%TO.C,KiKit_MB_21_2*%
X46208777Y-56120000D03*
%TD*%
%TO.C,KiKit_MB_41_2*%
X5000000Y-78620000D03*
%TD*%
%TO.C,KiKit_MB_41_1*%
X5000000Y-77620000D03*
%TD*%
%TO.C,KiKit_MB_38_3*%
X37250000Y-75620000D03*
%TD*%
%TO.C,KiKit_MB_13_3*%
X47208777Y-30580000D03*
%TD*%
%TO.C,KiKit_MB_25_3*%
X39250000Y-52080000D03*
%TD*%
D11*
%TO.C,H2*%
X64475000Y-60399900D03*
X65177944Y-58702844D03*
X65177944Y-62096956D03*
X66875000Y-57999900D03*
D12*
X66875000Y-60399900D03*
D11*
X66875000Y-62799900D03*
X68572056Y-58702844D03*
X68572056Y-62096956D03*
X69275000Y-60399900D03*
%TD*%
D10*
%TO.C,KiKit_MB_42_3*%
X71500000Y-79620000D03*
%TD*%
%TO.C,KiKit_MB_25_2*%
X39250000Y-53080000D03*
%TD*%
%TO.C,KiKit_MB_9_4*%
X10958777Y-30580000D03*
%TD*%
%TO.C,KiKit_MB_17_1*%
X7958777Y-56120000D03*
%TD*%
%TO.C,KiKit_MB_35_2*%
X38250000Y-5000000D03*
%TD*%
%TO.C,KiKit_MB_12_1*%
X5000000Y-45960000D03*
%TD*%
%TO.C,KiKit_MB_42_4*%
X71500000Y-80620000D03*
%TD*%
%TO.C,KiKit_MB_31_1*%
X5000000Y-52080000D03*
%TD*%
%TO.C,KiKit_MB_43_4*%
X3000000Y-5000000D03*
%TD*%
%TO.C,KiKit_MB_12_4*%
X5000000Y-42960000D03*
%TD*%
%TO.C,KiKit_MB_2_3*%
X29295000Y-24539913D03*
%TD*%
%TO.C,KiKit_MB_38_2*%
X38250000Y-75620000D03*
%TD*%
%TO.C,KiKit_MB_26_2*%
X71500000Y-53080000D03*
%TD*%
%TO.C,KiKit_MB_27_2*%
X39250000Y-27540000D03*
%TD*%
%TO.C,KiKit_MB_10_4*%
X28295000Y-50079916D03*
%TD*%
%TO.C,KiKit_MB_44_3*%
X2000000Y-75620000D03*
%TD*%
%TO.C,KiKit_MB_37_2*%
X38250000Y-54080000D03*
%TD*%
%TO.C,KiKit_MB_17_3*%
X9958777Y-56120000D03*
%TD*%
%TO.C,KiKit_MB_23_4*%
X71500000Y-71504035D03*
%TD*%
%TO.C,KiKit_MB_8_2*%
X42250000Y-19420000D03*
%TD*%
%TO.C,KiKit_MB_16_4*%
X42250000Y-42960000D03*
%TD*%
D11*
%TO.C,H1*%
X7225000Y-9319900D03*
X7927944Y-7622844D03*
X7927944Y-11016956D03*
X9625000Y-6919900D03*
D12*
X9625000Y-9319900D03*
D11*
X9625000Y-11719900D03*
X11322056Y-7622844D03*
X11322056Y-11016956D03*
X12025000Y-9319900D03*
%TD*%
D10*
%TO.C,KiKit_MB_11_2*%
X34250000Y-43964035D03*
%TD*%
%TO.C,KiKit_MB_33_2*%
X38250000Y-28540000D03*
%TD*%
%TO.C,KiKit_MB_29_1*%
X5000000Y-26540000D03*
%TD*%
%TO.C,KiKit_MB_13_4*%
X48208777Y-30580000D03*
%TD*%
%TO.C,KiKit_MB_13_2*%
X46208777Y-30580000D03*
%TD*%
%TO.C,KiKit_MB_16_1*%
X42250000Y-45960000D03*
%TD*%
D11*
%TO.C,H1*%
X44475000Y-34859900D03*
X45177944Y-33162844D03*
X45177944Y-36556956D03*
X46875000Y-32459900D03*
D12*
X46875000Y-34859900D03*
D11*
X46875000Y-37259900D03*
X48572056Y-33162844D03*
X48572056Y-36556956D03*
X49275000Y-34859900D03*
%TD*%
D10*
%TO.C,KiKit_MB_5_2*%
X46208777Y-5040000D03*
%TD*%
%TO.C,KiKit_MB_20_2*%
X5000000Y-70500000D03*
%TD*%
%TO.C,KiKit_MB_43_2*%
X1000000Y-5000000D03*
%TD*%
%TO.C,KiKit_MB_9_2*%
X8958777Y-30580000D03*
%TD*%
%TO.C,KiKit_MB_1_3*%
X9958777Y-5040000D03*
%TD*%
%TO.C,KiKit_MB_32_1*%
X37250000Y-52080000D03*
%TD*%
%TO.C,KiKit_MB_25_1*%
X39250000Y-54080000D03*
%TD*%
%TO.C,KiKit_MB_27_1*%
X39250000Y-28540000D03*
%TD*%
%TO.C,KiKit_MB_34_2*%
X38250000Y-52080000D03*
%TD*%
%TO.C,KiKit_MB_12_3*%
X5000000Y-43960000D03*
%TD*%
%TO.C,KiKit_MB_40_1*%
X71500000Y0D03*
%TD*%
%TO.C,KiKit_MB_4_2*%
X5000000Y-19420000D03*
%TD*%
%TO.C,KiKit_MB_2_1*%
X31295000Y-24539905D03*
%TD*%
%TO.C,KiKit_MB_19_4*%
X34250000Y-71504035D03*
%TD*%
%TO.C,KiKit_MB_43_3*%
X2000000Y-5000000D03*
%TD*%
%TO.C,KiKit_MB_12_2*%
X5000000Y-44960000D03*
%TD*%
%TO.C,KiKit_MB_19_2*%
X34250000Y-69504035D03*
%TD*%
%TO.C,KiKit_MB_16_3*%
X42250000Y-43960000D03*
%TD*%
%TO.C,KiKit_MB_2_4*%
X28295000Y-24539916D03*
%TD*%
%TO.C,KiKit_MB_36_2*%
X38250000Y-26540000D03*
%TD*%
%TO.C,KiKit_MB_45_2*%
X74500000Y-5000000D03*
%TD*%
%TO.C,KiKit_MB_37_1*%
X37250000Y-54080000D03*
%TD*%
%TO.C,KiKit_MB_14_4*%
X65545000Y-50079916D03*
%TD*%
%TO.C,KiKit_MB_18_1*%
X31295000Y-75619905D03*
%TD*%
%TO.C,KiKit_MB_15_4*%
X71500000Y-45964035D03*
%TD*%
%TO.C,KiKit_MB_31_2*%
X5000000Y-53080000D03*
%TD*%
%TO.C,KiKit_MB_4_4*%
X5000000Y-17420000D03*
%TD*%
%TO.C,KiKit_MB_18_2*%
X30295000Y-75619909D03*
%TD*%
%TO.C,KiKit_MB_20_1*%
X5000000Y-71500000D03*
%TD*%
%TO.C,KiKit_MB_3_4*%
X34250000Y-20424035D03*
%TD*%
%TO.C,KiKit_MB_1_1*%
X7958777Y-5040000D03*
%TD*%
%TO.C,KiKit_MB_33_3*%
X39250000Y-28540000D03*
%TD*%
%TO.C,KiKit_MB_7_4*%
X71500000Y-20424035D03*
%TD*%
D13*
%TO.C,USB1*%
X62450000Y-37369800D03*
X62450000Y-32769800D03*
X51300000Y-37369800D03*
X51300000Y-32769800D03*
%TD*%
D10*
%TO.C,KiKit_MB_34_3*%
X37250000Y-52080000D03*
%TD*%
%TO.C,KiKit_MB_40_3*%
X71500000Y-2000000D03*
%TD*%
%TO.C,KiKit_MB_45_4*%
X76500000Y-5000000D03*
%TD*%
%TO.C,KiKit_MB_14_2*%
X67545000Y-50079909D03*
%TD*%
%TO.C,KiKit_MB_44_4*%
X3000000Y-75620000D03*
%TD*%
%TO.C,KiKit_MB_35_3*%
X37250000Y-5000000D03*
%TD*%
%TO.C,KiKit_MB_28_2*%
X71500000Y-27540000D03*
%TD*%
%TO.C,KiKit_MB_28_1*%
X71500000Y-26540000D03*
%TD*%
%TO.C,KiKit_MB_39_4*%
X5000000Y-3000000D03*
%TD*%
%TO.C,KiKit_MB_20_4*%
X5000000Y-68500000D03*
%TD*%
D11*
%TO.C,H1*%
X7225000Y-34859900D03*
X7927944Y-33162844D03*
X7927944Y-36556956D03*
X9625000Y-32459900D03*
D12*
X9625000Y-34859900D03*
D11*
X9625000Y-37259900D03*
X11322056Y-33162844D03*
X11322056Y-36556956D03*
X12025000Y-34859900D03*
%TD*%
D10*
%TO.C,KiKit_MB_14_3*%
X66545000Y-50079913D03*
%TD*%
%TO.C,KiKit_MB_22_4*%
X65545000Y-75619916D03*
%TD*%
%TO.C,KiKit_MB_22_2*%
X67545000Y-75619909D03*
%TD*%
%TO.C,KiKit_MB_24_1*%
X42250000Y-71500000D03*
%TD*%
%TO.C,KiKit_MB_27_3*%
X39250000Y-26540000D03*
%TD*%
%TO.C,KiKit_MB_36_3*%
X37250000Y-26540000D03*
%TD*%
%TO.C,KiKit_MB_8_4*%
X42250000Y-17420000D03*
%TD*%
%TO.C,KiKit_MB_4_3*%
X5000000Y-18420000D03*
%TD*%
%TO.C,KiKit_MB_7_1*%
X71500000Y-17424035D03*
%TD*%
%TO.C,KiKit_MB_16_2*%
X42250000Y-44960000D03*
%TD*%
%TO.C,KiKit_MB_26_1*%
X71500000Y-52080000D03*
%TD*%
%TO.C,KiKit_MB_42_2*%
X71500000Y-78620000D03*
%TD*%
%TO.C,KiKit_MB_3_3*%
X34250000Y-19424035D03*
%TD*%
%TO.C,KiKit_MB_30_1*%
X37250000Y-26540000D03*
%TD*%
%TO.C,KiKit_MB_10_2*%
X30295000Y-50079909D03*
%TD*%
%TO.C,KiKit_MB_9_1*%
X7958777Y-30580000D03*
%TD*%
%TO.C,KiKit_MB_13_1*%
X45208777Y-30580000D03*
%TD*%
%TO.C,KiKit_MB_7_3*%
X71500000Y-19424035D03*
%TD*%
%TO.C,KiKit_MB_1_4*%
X10958777Y-5040000D03*
%TD*%
%TO.C,KiKit_MB_26_3*%
X71500000Y-54080000D03*
%TD*%
%TO.C,KiKit_MB_46_4*%
X76500000Y-75620000D03*
%TD*%
D13*
%TO.C,USB1*%
X25200000Y-62909800D03*
X25200000Y-58309800D03*
X14050000Y-62909800D03*
X14050000Y-58309800D03*
%TD*%
D10*
%TO.C,KiKit_MB_23_3*%
X71500000Y-70504035D03*
%TD*%
%TO.C,KiKit_MB_17_2*%
X8958777Y-56120000D03*
%TD*%
%TO.C,KiKit_MB_5_3*%
X47208777Y-5040000D03*
%TD*%
D11*
%TO.C,H2*%
X27225000Y-34859900D03*
X27927944Y-33162844D03*
X27927944Y-36556956D03*
X29625000Y-32459900D03*
D12*
X29625000Y-34859900D03*
D11*
X29625000Y-37259900D03*
X31322056Y-33162844D03*
X31322056Y-36556956D03*
X32025000Y-34859900D03*
%TD*%
D10*
%TO.C,KiKit_MB_39_1*%
X5000000Y0D03*
%TD*%
%TO.C,KiKit_MB_35_1*%
X39250000Y-5000000D03*
%TD*%
%TO.C,KiKit_MB_30_2*%
X37250000Y-27540000D03*
%TD*%
%TO.C,KiKit_MB_24_2*%
X42250000Y-70500000D03*
%TD*%
%TO.C,KiKit_MB_41_3*%
X5000000Y-79620000D03*
%TD*%
D13*
%TO.C,USB1*%
X25200000Y-37369800D03*
X25200000Y-32769800D03*
X14050000Y-37369800D03*
X14050000Y-32769800D03*
%TD*%
D11*
%TO.C,H1*%
X44475000Y-60399900D03*
X45177944Y-58702844D03*
X45177944Y-62096956D03*
X46875000Y-57999900D03*
D12*
X46875000Y-60399900D03*
D11*
X46875000Y-62799900D03*
X48572056Y-58702844D03*
X48572056Y-62096956D03*
X49275000Y-60399900D03*
%TD*%
%TO.C,H1*%
X7225000Y-60399900D03*
X7927944Y-58702844D03*
X7927944Y-62096956D03*
X9625000Y-57999900D03*
D12*
X9625000Y-60399900D03*
D11*
X9625000Y-62799900D03*
X11322056Y-58702844D03*
X11322056Y-62096956D03*
X12025000Y-60399900D03*
%TD*%
D10*
%TO.C,KiKit_MB_21_4*%
X48208777Y-56120000D03*
%TD*%
%TO.C,KiKit_MB_9_3*%
X9958777Y-30580000D03*
%TD*%
%TO.C,KiKit_MB_29_3*%
X5000000Y-28540000D03*
%TD*%
%TO.C,KiKit_MB_36_1*%
X39250000Y-26540000D03*
%TD*%
%TO.C,KiKit_MB_8_1*%
X42250000Y-20420000D03*
%TD*%
%TO.C,KiKit_MB_10_3*%
X29295000Y-50079913D03*
%TD*%
%TO.C,KiKit_MB_21_3*%
X47208777Y-56120000D03*
%TD*%
%TO.C,KiKit_MB_38_1*%
X39250000Y-75620000D03*
%TD*%
%TO.C,KiKit_MB_39_3*%
X5000000Y-2000000D03*
%TD*%
%TO.C,KiKit_MB_5_1*%
X45208777Y-5040000D03*
%TD*%
%TO.C,KiKit_MB_46_1*%
X73500000Y-75620000D03*
%TD*%
D13*
%TO.C,USB1*%
X62450000Y-11829800D03*
X62450000Y-7229800D03*
X51300000Y-11829800D03*
X51300000Y-7229800D03*
%TD*%
D10*
%TO.C,KiKit_MB_6_3*%
X66545000Y-24539913D03*
%TD*%
%TO.C,KiKit_MB_45_3*%
X75500000Y-5000000D03*
%TD*%
D11*
%TO.C,H1*%
X44475000Y-9319900D03*
X45177944Y-7622844D03*
X45177944Y-11016956D03*
X46875000Y-6919900D03*
D12*
X46875000Y-9319900D03*
D11*
X46875000Y-11719900D03*
X48572056Y-7622844D03*
X48572056Y-11016956D03*
X49275000Y-9319900D03*
%TD*%
D10*
%TO.C,KiKit_MB_22_1*%
X68545000Y-75619905D03*
%TD*%
%TO.C,KiKit_MB_18_4*%
X28295000Y-75619916D03*
%TD*%
%TO.C,KiKit_MB_11_4*%
X34250000Y-45964035D03*
%TD*%
%TO.C,KiKit_MB_4_1*%
X5000000Y-20420000D03*
%TD*%
%TO.C,KiKit_MB_3_1*%
X34250000Y-17424035D03*
%TD*%
%TO.C,KiKit_MB_43_1*%
X0Y-5000000D03*
%TD*%
%TO.C,KiKit_MB_8_3*%
X42250000Y-18420000D03*
%TD*%
%TO.C,KiKit_MB_14_1*%
X68545000Y-50079905D03*
%TD*%
%TO.C,KiKit_MB_18_3*%
X29295000Y-75619913D03*
%TD*%
%TO.C,KiKit_MB_42_1*%
X71500000Y-77620000D03*
%TD*%
%TO.C,KiKit_MB_15_1*%
X71500000Y-42964035D03*
%TD*%
%TO.C,KiKit_MB_39_2*%
X5000000Y-1000000D03*
%TD*%
%TO.C,KiKit_MB_44_1*%
X0Y-75620000D03*
%TD*%
%TO.C,KiKit_MB_21_1*%
X45208777Y-56120000D03*
%TD*%
%TO.C,KiKit_MB_45_1*%
X73500000Y-5000000D03*
%TD*%
D11*
%TO.C,H2*%
X64475000Y-34859900D03*
X65177944Y-33162844D03*
X65177944Y-36556956D03*
X66875000Y-32459900D03*
D12*
X66875000Y-34859900D03*
D11*
X66875000Y-37259900D03*
X68572056Y-33162844D03*
X68572056Y-36556956D03*
X69275000Y-34859900D03*
%TD*%
D10*
%TO.C,KiKit_MB_15_2*%
X71500000Y-43964035D03*
%TD*%
%TO.C,KiKit_MB_11_3*%
X34250000Y-44964035D03*
%TD*%
%TO.C,KiKit_MB_41_4*%
X5000000Y-80620000D03*
%TD*%
%TO.C,KiKit_MB_32_2*%
X37250000Y-53080000D03*
%TD*%
M02*
